<svg xmlns="http://www.w3.org/2000/svg" viewBox="0 0 20 20"><title>bitcoin</title><path d="M24.5-9.25a9,9,0,0,0-9,9,9,9,0,0,0,9,9,9,9,0,0,0,9-9A9,9,0,0,0,24.5-9.25Zm0,16.88A7.89,7.89,0,0,1,16.63-.25,7.89,7.89,0,0,1,24.5-8.13,7.9,7.9,0,0,1,32.38-.25,7.9,7.9,0,0,1,24.5,7.63Z" transform="translate(-14.5 10.25)" style="fill:#1db51d"/><path d="M27.16-.47a2.51,2.51,0,0,0,.72-1.75,2.52,2.52,0,0,0-2.25-2.5v-.59a.58.58,0,0,0-.57-.57.57.57,0,0,0-.56.57v.56H23.38v-.56a.58.58,0,0,0-.57-.57.57.57,0,0,0-.56.57v.56h-.56a.56.56,0,0,0-.56.56V3.69a.56.56,0,0,0,.56.56h.56v.56a.57.57,0,0,0,.56.57.58.58,0,0,0,.57-.57V4.25H24.5v.56a.57.57,0,0,0,.56.57.58.58,0,0,0,.57-.57V4.25h.28a2.54,2.54,0,0,0,2.53-2.53A2.53,2.53,0,0,0,27.16-.47ZM22.25-3.63h3.09a1.41,1.41,0,0,1,1.41,1.41A1.41,1.41,0,0,1,25.34-.81H22.25Zm3.66,6.76H22.25V.31h3.66a1.41,1.41,0,0,1,0,2.82Z" transform="translate(-14.5 10.25)" style="fill:#1db51d"/><rect width="20" height="20" style="fill:none"/></svg>