<svg xmlns="http://www.w3.org/2000/svg" viewBox="0 0 20 20"><title>credit_card</title><path d="M-20.14,63.27a1.69,1.69,0,0,0-1.9,0A1.68,1.68,0,0,0-23,63a1.7,1.7,0,0,0-1.7,1.69,1.7,1.7,0,0,0,1.7,1.7,1.68,1.68,0,0,0,.94-.29,1.7,1.7,0,0,0,2.36-.46A1.69,1.69,0,0,0-20.14,63.27Zm-.38,1.89a.75.75,0,0,1-1.06.1l-.09-.1A.44.44,0,0,0-22,65a.48.48,0,0,0-.36.16.72.72,0,0,1-.58.28.76.76,0,0,1-.76-.76.75.75,0,0,1,.76-.76.74.74,0,0,1,.58.28.47.47,0,0,0,.66.07.46.46,0,0,0,.07-.07.76.76,0,0,1,1.06-.1A.75.75,0,0,1-20.52,65.16Z" transform="translate(37.5 -50.87)" style="fill:#b71c1c"/><path d="M-17.52,59.29s0-.09,0-.13,0-.09,0-.14V58a2,2,0,0,0-2-2h-.57v-.57a2,2,0,0,0-2-2H-35.51a2,2,0,0,0-2,2v8.25a2,2,0,0,0,2,2H-35v.57a2,2,0,0,0,2,2h13.43a2,2,0,0,0,2-2V61.49s0-.09,0-.13,0-.09,0-.13ZM-35,58v6.74h-.54a1,1,0,0,1-1.05-1h0V55.47a1.06,1.06,0,0,1,1.05-1.07h13.44a1.06,1.06,0,0,1,1,1.07V56H-33A2,2,0,0,0-35,58Zm16.51,8.25a1.07,1.07,0,0,1-1.07,1.07H-33A1.06,1.06,0,0,1-34,66.27V61.81h15.57Zm0-5.4H-34V59.65h15.57Zm0-2.16H-34V58A1.07,1.07,0,0,1-33,57h13.44A1.06,1.06,0,0,1-18.45,58v.69Z" transform="translate(37.5 -50.87)" style="fill:#b71c1c"/><rect width="20" height="20" style="fill:none"/></svg>