<?xml version="1.0" encoding="utf-8"?>
<!-- Generator: Adobe Illustrator 24.1.1, SVG Export Plug-In . SVG Version: 6.00 Build 0)  -->
<svg version="1.1" id="Слой_1" xmlns="http://www.w3.org/2000/svg" xmlns:xlink="http://www.w3.org/1999/xlink" x="0px" y="0px"
	 width="20px" height="20px" viewBox="0 0 20 20" style="enable-background:new 0 0 20 20;" xml:space="preserve">
<style type="text/css">
	.st0{fill:#B71C1C;}
</style>
<g>
	<g>
		<path class="st0" d="M10.006,20l-0.223-0.073c-0.312-0.103-7.659-2.603-7.792-9.295V2.385l0.601-0.076
			c5.251-0.658,6.591-1.498,6.922-1.828L9.998,0l0.484,0.481c0.332,0.33,1.672,1.17,6.922,1.828l0.601,0.076v8.233
			c0.178,6.419-7.454,9.19-7.778,9.304L10.006,20z M3.364,3.593v7.024c0.102,5.105,5.462,7.469,6.628,7.923
			c1.195-0.487,6.776-3.026,6.641-7.905V3.593c-3.312-0.447-5.497-1.026-6.634-1.757C8.861,2.568,6.676,3.146,3.364,3.593z"/>
	</g>
	<path class="st0" d="M14.211,11.445c-0.057,0-0.112,0.012-0.163,0.029l-1.075-0.621c0.119-0.321,0.184-0.66,0.197-1.004h1.473
		V9.202h-1.514c-0.052-0.32-0.155-0.636-0.308-0.938l1.159-0.669c0.02,0.002,0.04,0.006,0.062,0.006
		c0.281,0,0.509-0.228,0.509-0.509c0-0.281-0.228-0.509-0.509-0.509c-0.281,0-0.509,0.228-0.509,0.509
		c0,0.005,0.001,0.009,0.001,0.013l-1.063,0.613c-0.205-0.259-0.444-0.479-0.708-0.658l0.781-1.352l-0.56-0.323l-0.789,1.367
		c-0.297-0.124-0.61-0.205-0.93-0.237V5.249c0.112-0.093,0.186-0.232,0.186-0.39c0-0.281-0.228-0.509-0.509-0.509
		c-0.281,0-0.509,0.228-0.509,0.509c0,0.158,0.073,0.297,0.186,0.39v1.264C9.294,6.545,8.972,6.626,8.662,6.76L7.909,5.456
		l-0.56,0.323l0.748,1.295C7.81,7.273,7.563,7.51,7.362,7.777L6.407,7.226C6.388,6.962,6.17,6.753,5.902,6.753
		c-0.281,0-0.509,0.228-0.509,0.509c0,0.281,0.228,0.509,0.509,0.509c0.044,0,0.085-0.007,0.125-0.017l1,0.577
		C6.874,8.65,6.778,8.993,6.735,9.344H5.373V9.99h1.349c0.029,0.358,0.114,0.716,0.267,1.057l-0.977,0.564
		c-0.068-0.033-0.143-0.054-0.223-0.054c-0.281,0-0.509,0.228-0.509,0.509c0,0.281,0.228,0.509,0.509,0.509
		c0.232,0,0.426-0.157,0.487-0.369l1.04-0.6c0.222,0.311,0.49,0.571,0.791,0.778l-0.635,1.1l0.56,0.323l0.641-1.11
		c0.301,0.128,0.62,0.209,0.947,0.243v0.975c-0.128,0.092-0.212,0.242-0.212,0.412c0,0.281,0.228,0.509,0.509,0.509
		c0.281,0,0.509-0.228,0.509-0.509c0-0.145-0.062-0.275-0.159-0.368v-1.018c0.402-0.04,0.801-0.157,1.178-0.355l0.664,1.15
		l0.56-0.323l-0.682-1.182c0.281-0.23,0.519-0.498,0.703-0.796l1.022,0.59c0.035,0.247,0.245,0.437,0.502,0.437
		c0.281,0,0.509-0.228,0.509-0.509C14.72,11.673,14.492,11.445,14.211,11.445z M8.468,7.815c0.256-0.148,0.585-0.06,0.733,0.196
		c0.148,0.256,0.06,0.585-0.196,0.733c-0.256,0.148-0.585,0.06-0.733-0.196C8.124,8.291,8.212,7.963,8.468,7.815z M9.026,10.497
		c-0.256,0.148-0.585,0.06-0.733-0.196c-0.148-0.256-0.06-0.585,0.196-0.733s0.585-0.06,0.733,0.196
		C9.37,10.021,9.282,10.349,9.026,10.497z M10.827,9.324c-0.256,0.148-0.585,0.06-0.733-0.196c-0.148-0.256-0.06-0.585,0.196-0.733
		c0.256-0.148,0.585-0.06,0.733,0.196C11.171,8.847,11.083,9.176,10.827,9.324z"/>
</g>
</svg>
