<svg xmlns="http://www.w3.org/2000/svg" viewBox="0 0 20 20"><title>delivery</title><path d="M7.26,91.59A1.85,1.85,0,0,0,6,92.13a1.8,1.8,0,0,0-.54,1.29A1.82,1.82,0,0,0,6,94.72a1.91,1.91,0,0,0,1.31.54,1.84,1.84,0,0,0,0-3.67Zm0,2.85a1,1,0,1,1,0-2,1,1,0,0,1,0,2Zm.47-9a.39.39,0,0,0-.27-.11H5.37a.41.41,0,0,0-.41.41v3.34a.4.4,0,0,0,.41.4H8.68a.4.4,0,0,0,.41-.4V86.89a.43.43,0,0,0-.13-.3Zm.55,3.23H5.77V86.19H7.3l1,.88Zm-11,2.87a1.82,1.82,0,0,0-1.3.54,1.81,1.81,0,0,0-.55,1.29A1.79,1.79,0,0,0-4,94.72a1.87,1.87,0,0,0,1.3.54A1.84,1.84,0,0,0-.87,93.42,1.83,1.83,0,0,0-2.69,91.59Zm0,2.85a1,1,0,0,1-1-1,1,1,0,0,1,1-1,1,1,0,0,1,1,1A1,1,0,0,1-2.69,94.44ZM-5.4,92.09h-.82V91a.41.41,0,0,0-.41-.41A.41.41,0,0,0-7,91V92.5a.42.42,0,0,0,.41.41H-5.4A.41.41,0,0,0-5,92.5.4.4,0,0,0-5.4,92.09Zm2.06-2.22a.41.41,0,0,0-.41-.41H-8.69a.41.41,0,0,0-.4.41.4.4,0,0,0,.4.41h4.94A.41.41,0,0,0-3.34,89.87ZM-7.86,88.4l4.94,0a.41.41,0,0,0,.41-.4.4.4,0,0,0-.4-.41l-4.94,0h0a.4.4,0,0,0-.4.4A.4.4,0,0,0-7.86,88.4ZM-7,86.55h4.94a.41.41,0,0,0,.41-.4.41.41,0,0,0-.41-.41H-7a.41.41,0,0,0-.41.41A.41.41,0,0,0-7,86.55ZM10.76,86h0L7.84,83.59a.4.4,0,0,0-.26-.1H4.15V82a.41.41,0,0,0-.41-.41H-6.63A.41.41,0,0,0-7,82v3a.42.42,0,0,0,.41.41A.42.42,0,0,0-6.22,85V82.44H3.34v9.65H0a.41.41,0,0,0-.41.41.42.42,0,0,0,.41.41H5a.41.41,0,0,0,.41-.41A.41.41,0,0,0,5,92.09H4.15V84.31H7.44l2.65,2.2,0,5.57H9.64a.41.41,0,1,0,0,.82h.83a.4.4,0,0,0,.4-.41l0-6.17A.48.48,0,0,0,10.76,86Z" transform="translate(9.09 -78.44)" style="fill:#b71c1c"/><rect width="20" height="20" style="fill:none"/></svg>