<?xml version="1.0" encoding="utf-8"?>
<!-- Generator: Adobe Illustrator 24.1.1, SVG Export Plug-In . SVG Version: 6.00 Build 0)  -->
<svg version="1.1" id="Слой_1" xmlns="http://www.w3.org/2000/svg" xmlns:xlink="http://www.w3.org/1999/xlink" x="0px" y="0px"
	 width="20px" height="20px" viewBox="0 0 20 20" style="enable-background:new 0 0 20 20;" xml:space="preserve">
<style type="text/css">
	.st0{fill:#1DB51D;}
</style>
<g>
	<path class="st0" d="M7.564,1.4H4.158c-0.2,0-0.301,0.1-0.301,0.3v0.1c0,0.2,0.1,0.3,0.301,0.3h3.406c0.2,0,0.301-0.1,0.301-0.3
		V1.7C7.865,1.5,7.764,1.4,7.564,1.4z"/>
	<circle class="st0" cx="8.816" cy="1.75" r="0.35"/>
	<g>
		<path class="st0" d="M5.711,18.6h1.302c0.2,0,0.301-0.1,0.301-0.3v-0.1c0-0.2-0.1-0.3-0.301-0.3H5.711c-0.2,0-0.301,0.1-0.301,0.3
			v0.1C5.41,18.5,5.51,18.6,5.711,18.6z"/>
		<path class="st0" d="M0,11.6v6.7C0,19.2,0.801,20,1.703,20h9.317c0.902,0,1.703-0.8,1.703-1.7V1.7c0-0.9-0.801-1.7-1.703-1.7
			H1.703C0.801,0,0,0.8,0,1.7v2 M0.801,17.4h11.02v0.9c0,0.5-0.401,0.9-0.902,0.9H1.703c-0.501,0-0.902-0.4-0.902-0.9V17.4z
			 M11.922,3.4v13.2H0.801V3.4H11.922z M0.801,1.7c0-0.5,0.401-0.9,0.902-0.9h9.317c0.501,0,0.902,0.4,0.902,0.9v0.9H0.801V1.7z
			 M0,4.5v3.6 M0,9v1.7"/>
	</g>
	<path class="st0" d="M6.164,13.012c-0.751,0-1.365-0.539-1.365-1.198H3.434c0,1.078,0.819,2.036,2.047,2.335v1.257h1.365V14.15
		c1.433-0.359,2.32-1.677,1.911-2.934C8.416,10.198,7.392,9.48,6.164,9.42c-0.751,0-1.365-0.539-1.365-1.198
		s0.614-1.198,1.365-1.198s1.365,0.539,1.365,1.198h1.365c0-1.078-0.819-2.036-2.047-2.335V4.63H5.482v1.257
		c-1.433,0.359-2.32,1.677-1.911,2.934c0.341,1.018,1.365,1.736,2.593,1.796c0.751,0,1.365,0.539,1.365,1.198
		S6.915,13.012,6.164,13.012z"/>
	<path class="st0" d="M20,10.185c-0.041,1.595-0.565,3.016-1.668,4.191c-0.222,0.236-0.48,0.325-0.784,0.192
		c-0.263-0.115-0.394-0.335-0.404-0.624c-0.009-0.249,0.125-0.434,0.283-0.61c0.806-0.9,1.212-1.972,1.208-3.194
		c-0.004-1.137-0.381-2.142-1.1-3.005c-0.091-0.109-0.191-0.211-0.269-0.328c-0.188-0.285-0.155-0.643,0.071-0.882
		c0.229-0.243,0.558-0.278,0.849-0.086c0.193,0.127,0.325,0.318,0.468,0.496C19.54,7.442,19.959,8.727,20,10.185z"/>
	<path class="st0" d="M16.914,10.098c-0.027,0.843-0.259,1.493-0.765,2.022c-0.307,0.321-0.678,0.346-0.969,0.073
		c-0.271-0.253-0.316-0.679-0.037-0.981c0.523-0.564,0.555-1.478,0.009-2.07c-0.287-0.311-0.233-0.752,0.055-1.005
		c0.29-0.255,0.684-0.218,0.97,0.105C16.667,8.796,16.905,9.456,16.914,10.098z"/>
</g>
</svg>
