<svg xmlns="http://www.w3.org/2000/svg" viewBox="0 0 20 20"><title>disabled-sign</title><path d="M33.07,6.28a4.7,4.7,0,0,1-3.34,1.38A4.72,4.72,0,0,1,26.39-.4a.62.62,0,0,0,0-.89.64.64,0,0,0-.89,0A6,6,0,0,0,34,7.17a.64.64,0,0,0,0-.89A.62.62,0,0,0,33.07,6.28Z" transform="translate(-21.35 10.08)" style="fill:#1db51d"/><path d="M38.33,4.9H36.54L35.43,1.82a.63.63,0,0,0-.59-.41H30.17V-1.42H34.5A.63.63,0,0,0,35.13-2a.63.63,0,0,0-.63-.62H30.17V-4.62a.63.63,0,0,0-.63-.62.62.62,0,0,0-.62.62V2a.63.63,0,0,0,.62.63H34.4l1.1,3.07a.64.64,0,0,0,.59.42h2.24A.63.63,0,0,0,39,5.53.63.63,0,0,0,38.33,4.9Z" transform="translate(-21.35 10.08)" style="fill:#1db51d"/><path d="M29.57-6A1.53,1.53,0,0,0,31.1-7.56a1.53,1.53,0,0,0-1.53-1.52A1.52,1.52,0,0,0,28-7.56,1.52,1.52,0,0,0,29.57-6Z" transform="translate(-21.35 10.08)" style="fill:#1db51d"/><rect width="20" height="20" style="fill:none"/></svg>