<svg xmlns="http://www.w3.org/2000/svg" viewBox="0 0 14 14"><title>1</title><rect width="14" height="14" style="fill:none"/><path d="M19.79,17.31a.66.66,0,0,1-.3-.07l-3.33-1.76-3.34,1.76a.64.64,0,0,1-.92-.67l.65-3.71-2.7-2.63a.63.63,0,0,1,.35-1.08l3.73-.53,1.66-3.39a.66.66,0,0,1,1.13,0l1.67,3.39,3.73.53a.66.66,0,0,1,.51.43.65.65,0,0,1-.16.65l-2.7,2.63.64,3.71a.64.64,0,0,1-.25.62A.63.63,0,0,1,19.79,17.31Zm-3.63-3.17a.59.59,0,0,1,.29.07L19,15.53l-.48-2.79a.62.62,0,0,1,.18-.55l2-2-2.79-.41a.65.65,0,0,1-.48-.34L16.16,6.93,14.91,9.47a.64.64,0,0,1-.48.34l-2.79.41,2,2a.6.6,0,0,1,.18.55l-.48,2.79,2.5-1.32A.63.63,0,0,1,16.16,14.14Z" transform="translate(-9.16 -4.11)" style="fill:#b71c1c"/></svg>