<?xml version="1.0" encoding="utf-8"?>
<!-- Generator: Adobe Illustrator 24.1.1, SVG Export Plug-In . SVG Version: 6.00 Build 0)  -->
<svg version="1.1" id="Слой_1" xmlns="http://www.w3.org/2000/svg" xmlns:xlink="http://www.w3.org/1999/xlink" x="0px" y="0px"
	 width="20px" height="20px" viewBox="0 0 20 20" style="enable-background:new 0 0 20 20;" xml:space="preserve">
<style type="text/css">
	.st0{fill:#B71C1C;}
</style>
<g>
	<path class="st0" d="M15,13.275c0-1.439-1.418-3.392-2.836-4.111c0.982-1.233,1.309-2.775,0.873-4.523c0-0.103,0-0.103,0.109-0.206
		c0.982-0.514,1.309-1.542,1.091-2.57c-0.327-1.028-1.091-1.747-2.182-1.85c-1.091-0.103-1.964,0.308-2.509,1.131
		c0,0.103-0.109,0.103-0.218,0.103c-0.623-0.16-1.217-0.23-1.812-0.223V1.024c-0.005,0-0.01,0.001-0.015,0.001
		c-0.005,0-0.01-0.001-0.015-0.001v0.002C6.89,1.019,6.296,1.089,5.673,1.249c-0.109,0-0.218,0-0.218-0.103
		C4.909,0.324,4.036-0.087,2.945,0.016c-1.091,0.103-1.855,0.822-2.182,1.85c-0.218,1.028,0.109,2.056,1.091,2.57
		c0.109,0.103,0.109,0.103,0.109,0.206C1.527,6.388,1.855,7.93,2.836,9.164C1.418,9.883,0,11.836,0,13.275
		c0,0.925,0.436,1.747,1.309,2.159c0,0,0,0,0,0.103c-0.327,0.719-0.327,1.542-0.109,2.261c0.327,1.028,1.2,1.85,2.182,2.056
		c0.218,0,0.436,0.103,0.545,0.103c0.764,0,1.527-0.308,2.073-0.925c0,0,0.109-0.103,0.218,0c0.474,0.223,0.907,0.259,1.282,0.233
		c0.374,0.025,0.808-0.01,1.282-0.233c0.109-0.103,0.218,0,0.218,0c0.545,0.617,1.309,0.925,2.073,0.925
		c0.109,0,0.327-0.103,0.545-0.103c0.982-0.206,1.854-1.028,2.182-2.056c0.218-0.719,0.218-1.542-0.109-2.261
		c0-0.103,0-0.103,0-0.103C14.564,15.022,15,14.2,15,13.275z M10.527,1.352c0.327-0.206,0.764-0.308,1.091-0.308
		c0.218,0,0.327,0,0.436,0.103c0.655,0.206,1.091,0.822,1.091,1.439c0.109,0.103-0.109,0.72-0.436,1.028
		c0,0.103-0.109,0.103-0.109,0.103c-0.545-0.925-1.2-1.542-2.182-2.056C10.418,1.557,10.527,1.455,10.527,1.352z M2.291,3.613
		C1.964,3.305,1.745,2.688,1.855,2.585c0-0.617,0.436-1.233,1.091-1.439c0.109-0.103,0.218-0.103,0.436-0.103
		c0.327,0,0.764,0.103,1.091,0.308c0,0.103,0.109,0.206,0.109,0.308C3.6,2.174,2.945,2.791,2.4,3.716
		C2.4,3.716,2.291,3.716,2.291,3.613z M4.473,2.791c0.873-0.514,1.964-0.822,2.945-0.822c0.022,0,0.044,0.002,0.067,0.004v0.002
		c0.005,0,0.01-0.001,0.015-0.001c0.005,0,0.01,0.001,0.015,0.001V1.972C7.537,1.971,7.56,1.968,7.582,1.968
		c0.982,0,2.073,0.308,2.945,0.822c1.309,0.822,1.854,2.159,1.636,3.7c-0.21,2.577-2.45,3.708-4.664,3.694
		c-2.214,0.014-4.453-1.117-4.664-3.694C2.618,4.949,3.164,3.613,4.473,2.791z M1.745,14.611c-0.436-0.103-0.873-0.617-0.764-1.028
		c0.218-1.645,0.982-2.878,2.509-3.598c0-0.103,0.109-0.103,0,0c0.109,0,0.109,0,0.109,0c0.327,0.206,0.655,0.411,1.091,0.617
		c-0.655,0.822-1.091,1.85-1.2,3.084c0,0.103,0,0.103-0.109,0.103c-0.545,0.103-0.982,0.411-1.2,0.617
		C2.073,14.509,1.855,14.714,1.745,14.611z M4.473,18.826c-0.764,0.206-1.418,0.103-1.964-0.514
		c-0.655-0.822-0.655-2.261,0.218-3.084c0.327-0.308,0.764-0.514,1.2-0.514c0.218,0,0.436,0,0.655,0.103
		C5.345,15.125,6,15.845,5.891,16.77C6,17.798,5.236,18.517,4.473,18.826z M8.455,15.331c-0.436,0.822-0.545,1.85-0.109,2.672
		c0,0.103,0,0.103,0,0.103s0,0-0.109,0c-0.263,0.099-0.5,0.148-0.736,0.151c-0.237-0.004-0.474-0.052-0.736-0.151
		c-0.109,0-0.109,0-0.109,0s0,0,0-0.103c0.436-0.822,0.327-1.85-0.109-2.672c-0.436-0.822-1.091-1.336-1.964-1.542
		c-0.109,0-0.109,0-0.109-0.103c0.109-1.131,0.436-1.953,1.091-2.672c0.109-0.103,0.109-0.103,0.218-0.103
		c0.574,0.108,1.145,0.153,1.703,0.148v0.001c0.005,0,0.01-0.001,0.015-0.001c0.005,0,0.01,0.001,0.015,0.001v-0.001
		c0.558,0.006,1.129-0.04,1.703-0.148c0.109,0,0.109,0,0.218,0.103c0.655,0.72,0.982,1.542,1.091,2.672c0,0.103,0,0.103-0.109,0.103
		C9.545,13.995,8.891,14.509,8.455,15.331z M12.491,18.312c-0.545,0.617-1.2,0.72-1.964,0.514C9.764,18.517,9,17.798,9.109,16.77
		C9,15.845,9.655,15.125,10.418,14.817c0.218-0.103,0.436-0.103,0.655-0.103c0.436,0,0.873,0.206,1.2,0.514
		C13.145,16.05,13.145,17.489,12.491,18.312z M13.255,14.611c-0.109,0.103-0.327-0.103-0.436-0.206
		c-0.218-0.206-0.655-0.514-1.2-0.617c-0.109,0-0.109,0-0.109-0.103c-0.109-1.233-0.545-2.261-1.2-3.084
		c0.436-0.206,0.764-0.411,1.091-0.617c0,0,0,0,0.109,0c-0.109-0.103,0-0.103,0,0c1.527,0.72,2.291,1.953,2.509,3.598
		C14.127,13.995,13.691,14.509,13.255,14.611z"/>
	<path class="st0" d="M19.099,10.749h-5.143c0.213,0.28,0.404,0.57,0.561,0.87l4.542-0.021v7.517l-6.118,0.029
		c-0.38,0.354-0.838,0.609-1.324,0.711c-0.218,0-0.436,0.103-0.545,0.103c-0.121,0-0.242-0.021-0.362-0.037
		c0.114,0.049,0.238,0.08,0.372,0.08h8.017C19.596,20,20,19.619,20,19.151v-7.554C20,11.13,19.596,10.749,19.099,10.749z"/>
	<g>
		<path class="st0" d="M10.046,6.763c-0.212,0-0.425,0.091-0.425,0.363c0,0.272-0.106,0.454-0.212,0.635
			C9.091,8.124,8.666,8.306,8.135,8.397c-0.106,0.091-0.106,0-0.106-0.091c0-0.182,0-0.363,0-0.545c0-0.181,0-0.181,0.106-0.272
			C8.347,7.398,8.56,7.308,8.772,7.126c0.212-0.182,0.319-0.545,0.212-0.817C8.878,6.037,8.666,5.855,8.241,5.855
			c-0.212,0-0.319,0-0.531,0c-0.025,0-0.046,0.002-0.071,0.003v0.633c0.025,0,0.042,0,0.071,0c0.106,0,0.319,0,0.637-0.091
			c0,0,0.117,0,0.106,0.091c-0.047,0.4-0.425,0.363-0.637,0.454c-0.089,0-0.113,0-0.177,0v1.994C8.486,8.946,9.349,8.676,9.94,8.124
			c0.212-0.272,0.425-0.635,0.425-0.998C10.365,6.945,10.258,6.763,10.046,6.763z"/>
		<path class="st0" d="M7.034,5.855c-0.425,0-0.637,0.182-0.743,0.454c-0.106,0.272,0,0.635,0.212,0.817
			C6.715,7.308,6.927,7.398,7.14,7.489C7.246,7.58,7.246,7.58,7.246,7.761c0,0.182,0,0.363,0,0.545c0,0.091,0,0.182-0.106,0.091
			C6.609,8.306,6.184,8.124,5.866,7.761C5.76,7.58,5.653,7.398,5.653,7.126c0-0.272-0.212-0.363-0.425-0.363
			c-0.212,0-0.319,0.182-0.319,0.363c0,0.363,0.212,0.726,0.425,0.998c0.591,0.551,1.454,0.821,2.301,0.814V6.945
			c-0.064,0-0.088,0-0.177,0c-0.212-0.091-0.59-0.054-0.637-0.454C6.811,6.4,6.927,6.4,6.927,6.4
			c0.319,0.091,0.531,0.091,0.637,0.091c0.028,0,0.046,0,0.071,0V5.858c-0.024,0-0.046-0.003-0.071-0.003
			C7.352,5.855,7.246,5.855,7.034,5.855z"/>
	</g>
	<ellipse class="st0" cx="6" cy="4.325" rx="0.545" ry="0.514"/>
	<ellipse class="st0" cx="9.273" cy="4.325" rx="0.545" ry="0.514"/>
</g>
</svg>
