<?xml version="1.0" encoding="utf-8"?>
<!-- Generator: Adobe Illustrator 24.1.1, SVG Export Plug-In . SVG Version: 6.00 Build 0)  -->
<svg version="1.1" id="Слой_1" xmlns="http://www.w3.org/2000/svg" xmlns:xlink="http://www.w3.org/1999/xlink" x="0px" y="0px"
	 width="20px" height="20px" viewBox="0 0 20 20" style="enable-background:new 0 0 20 20;" xml:space="preserve">
<style type="text/css">
	.st0{fill:#B71C1C;}
</style>
<g>
	<path class="st0" d="M10.701,20c-0.468,0-0.937,0-1.405,0c-0.566-0.085-1.125-0.194-1.669-0.379
		c-2.672-0.907-4.652-3.489-4.82-6.292c-0.009-0.148,0.052-0.321-0.039-0.438c-0.099-0.127-0.283-0.032-0.425-0.067
		c-0.006-0.002-0.013-0.002-0.019-0.003c-1.797-0.266-2.64-2.376-1.516-3.804c0.086-0.109,0.123-0.218,0.123-0.356
		C0.927,7.633,0.929,6.606,0.929,5.578c0-0.182,0.011-0.363,0.035-0.544c0.25-1.928,1.815-3.496,3.752-3.744
		c0.256-0.033,0.478-0.111,0.699-0.254c1.069-0.691,2.244-1.04,3.522-1.035c1.19,0.005,2.38,0.007,3.57-0.001
		c1.194-0.008,2.314,0.274,3.327,0.898c2.056,1.267,3.158,3.111,3.232,5.538c0.022,0.734,0.007,1.47,0.001,2.205
		c-0.001,0.152,0.039,0.272,0.135,0.391c0.421,0.527,0.572,1.135,0.468,1.795c-0.193,1.224-1.213,2.021-2.287,2.005
		c-0.15-0.002-0.192,0.069-0.188,0.204c0.008,0.287-0.026,0.571-0.075,0.853c-0.458,2.631-1.919,4.484-4.349,5.576
		C12.113,19.761,11.412,19.904,10.701,20z M10.868,1.281c-0.722,0-1.307-0.007-1.893,0.002C7.911,1.298,6.91,1.558,6.038,2.181
		C5.692,2.428,5.339,2.54,4.926,2.571C3.592,2.672,2.362,3.905,2.245,5.238c-0.08,0.902-0.018,1.807-0.037,2.71
		C2.204,8.09,2.281,8.122,2.405,8.121c0.345-0.004,0.69,0.007,1.034-0.003c1.12-0.031,2.112-0.394,2.946-1.158
		c0.212-0.194,0.211-0.195-0.008-0.366C5.956,6.265,5.558,5.911,5.181,5.533c-0.187-0.188-0.24-0.416-0.164-0.665
		C5.092,4.623,5.27,4.477,5.52,4.43c0.237-0.045,0.432,0.047,0.599,0.212c0.385,0.38,0.789,0.736,1.221,1.062
		c1.856,1.397,3.945,2.193,6.259,2.371c1.33,0.103,2.665,0.032,3.998,0.046c0.143,0.002,0.196-0.055,0.195-0.197
		c-0.005-0.462,0.006-0.924-0.004-1.385c-0.021-0.953-0.237-1.858-0.744-2.673c-0.952-1.531-2.322-2.398-4.128-2.555
		C12.188,1.248,11.459,1.301,10.868,1.281z M4.081,10.899c0,0.442,0.006,0.885-0.003,1.327c-0.003,0.153,0.055,0.236,0.188,0.302
		c0.344,0.169,0.694,0.326,1.046,0.479c1.05,0.454,2.112,0.527,3.184,0.097c1.01-0.405,2.009-0.402,3.018,0.005
		c0.696,0.281,1.42,0.357,2.162,0.21c0.755-0.149,1.437-0.488,2.118-0.827c0.086-0.043,0.121-0.108,0.121-0.203
		c-0.001-0.904-0.002-1.808,0.001-2.712c0-0.139-0.066-0.181-0.193-0.178c-0.188,0.005-0.377-0.003-0.566,0.002
		c-1.101,0.024-2.195-0.032-3.277-0.256c-1.432-0.297-2.78-0.81-4.041-1.551c-0.094-0.055-0.166-0.1-0.268,0.009
		C6.674,8.563,5.569,9.138,4.273,9.344C4.125,9.367,4.077,9.428,4.079,9.572C4.086,10.014,4.081,10.456,4.081,10.899z
		 M15.772,13.961c-0.357,0.142-0.691,0.286-1.033,0.408c-1.21,0.429-2.428,0.437-3.623-0.032c-0.757-0.297-1.481-0.313-2.231,0.002
		c-0.624,0.262-1.288,0.352-1.965,0.342c-0.828-0.012-1.6-0.251-2.349-0.581c-0.11-0.049-0.222-0.095-0.344-0.147
		c0.293,2.037,2.283,4.743,5.731,4.771C13.342,18.751,15.438,16.132,15.772,13.961z M2.802,10.477c0-0.298-0.003-0.597,0.001-0.895
		C2.806,9.432,2.74,9.389,2.599,9.405c-0.583,0.067-1.012,0.518-1.012,1.071c0,0.552,0.428,1.004,1.012,1.071
		c0.141,0.016,0.207-0.026,0.205-0.176C2.798,11.074,2.802,10.775,2.802,10.477z M17.195,10.467c0,0.298,0.004,0.597-0.002,0.895
		c-0.003,0.159,0.063,0.204,0.214,0.184c0.587-0.077,1.012-0.532,1.002-1.08c-0.01-0.551-0.422-0.984-1.002-1.06
		c-0.151-0.02-0.218,0.026-0.214,0.185C17.2,9.883,17.195,10.175,17.195,10.467z"/>
	<path class="st0" d="M6.239,10.942c0-0.123-0.006-0.247,0.001-0.369c0.021-0.333,0.296-0.579,0.638-0.579
		c0.338,0.001,0.619,0.252,0.634,0.584c0.011,0.246,0.011,0.493,0,0.739c-0.016,0.331-0.297,0.58-0.637,0.58
		c-0.337-0.001-0.616-0.254-0.635-0.584C6.233,11.189,6.239,11.065,6.239,10.942z"/>
	<path class="st0" d="M12.483,10.948c0-0.123-0.006-0.247,0.001-0.369c0.019-0.334,0.291-0.583,0.633-0.584
		c0.339-0.001,0.623,0.248,0.639,0.578c0.012,0.246,0.011,0.493,0.001,0.739c-0.015,0.34-0.302,0.591-0.652,0.585
		c-0.334-0.006-0.606-0.265-0.621-0.599C12.478,11.181,12.483,11.064,12.483,10.948C12.483,10.948,12.483,10.948,12.483,10.948z"/>
</g>
</svg>
