<svg xmlns="http://www.w3.org/2000/svg" viewBox="0 0 20 20"><title>outdoor</title><path d="M-179.56,10.9a.62.62,0,0,0-.47-.61l-7.81-2.08a.58.58,0,0,0-.32,0L-196,10.29a.62.62,0,0,0-.47.61v1.56a2.2,2.2,0,0,0,2.19,2.19,2.22,2.22,0,0,0,1.57-.65,2.18,2.18,0,0,0,1.56.65,2.2,2.2,0,0,0,1.56-.65,2.16,2.16,0,0,0,.93.56v4.68h-5.1a.64.64,0,0,0-.63.63.64.64,0,0,0,.63.64h1.83l3,3L-191,25.67a.63.63,0,0,0,0,.9.64.64,0,0,0,.45.18.62.62,0,0,0,.44-.18l2.16-2.16,2.16,2.16a.62.62,0,0,0,.44.18.64.64,0,0,0,.45-.18.63.63,0,0,0,0-.9l-2.16-2.15,3-3h1.83a.64.64,0,0,0,.63-.64.64.64,0,0,0-.63-.63h-5.1V14.56a2.16,2.16,0,0,0,.93-.56,2.2,2.2,0,0,0,1.56.65,2.18,2.18,0,0,0,1.56-.65,2.22,2.22,0,0,0,1.57.65,2.2,2.2,0,0,0,2.19-2.19h0Zm-9.37,1.56a.63.63,0,0,0-.63-.63.63.63,0,0,0-.63.63.93.93,0,0,1-.93.93.93.93,0,0,1-.93-.92v0a.64.64,0,0,0-.63-.62h0a.63.63,0,0,0-.63.63h0a.93.93,0,0,1-.93.92.93.93,0,0,1-.93-.93V11.38L-188,9.47l7.18,1.91v1.08h0a.93.93,0,0,1-.93.93.93.93,0,0,1-.93-.93.64.64,0,0,0-.64-.63.63.63,0,0,0-.63.63.93.93,0,0,1-.93.93.93.93,0,0,1-.93-.93.63.63,0,0,0-.63-.63.63.63,0,0,0-.63.63.93.93,0,0,1-.93.93A.93.93,0,0,1-188.93,12.46Zm-1.19,8.05h4.24L-188,22.63Z" transform="translate(198 -7.47)" style="fill:#1db51d"/><path d="M-178.63,21.33H-183a.63.63,0,0,0-.63.63.63.63,0,0,0,.63.63h1.57v2.9h-.41a.63.63,0,0,0-.63.63.63.63,0,0,0,.63.63h2.08a.63.63,0,0,0,.63-.63.63.63,0,0,0-.63-.63h-.41v-2.9h1.57A.63.63,0,0,0-178,22,.63.63,0,0,0-178.63,21.33Z" transform="translate(198 -7.47)" style="fill:#1db51d"/><path d="M-193,21.33h-4.4A.63.63,0,0,0-198,22a.63.63,0,0,0,.63.63h1.57v2.9h-.41a.63.63,0,0,0-.63.63.63.63,0,0,0,.63.63h2.08a.63.63,0,0,0,.63-.63.63.63,0,0,0-.63-.63h-.41v-2.9H-193a.63.63,0,0,0,.63-.63A.63.63,0,0,0-193,21.33Z" transform="translate(198 -7.47)" style="fill:#1db51d"/><rect width="20" height="20" style="fill:none"/></svg>