<svg xmlns="http://www.w3.org/2000/svg" viewBox="0 0 20 20"><title>parking</title><path d="M-5.34,15.62c.5,0,1-.2,1-.61V12.28H-3.1c1.75,0,3.12-.81,3.12-2.94V9.28A2.66,2.66,0,0,0-3,6.37H-5.59A.66.66,0,0,0-6.32,7V15C-6.32,15.42-5.83,15.62-5.34,15.62Zm1-7.53H-3.1c.71,0,1.14.4,1.14,1.26v.14c0,.86-.43,1.27-1.14,1.27H-4.35V8.09Z" transform="translate(13.41 -0.69)" style="fill:#b71c1c"/><path d="M4.89,1.69H-11.7a.7.7,0,0,0-.71.7V19a.71.71,0,0,0,.71.71H4.89a.7.7,0,0,0,.7-.71V2.39A.7.7,0,0,0,4.89,1.69Zm-.7,16.59H-11V3.09H4.19Z" transform="translate(13.41 -0.69)" style="fill:#b71c1c"/><rect width="20" height="20" style="fill:none"/></svg>