<svg xmlns="http://www.w3.org/2000/svg" width="80" height="16" viewBox="0 0 80 16" fill="none">
    <path d="M7.11555 1.67634C7.49076 0.965191 8.50924 0.965193 8.88445 1.67634L10.2157 4.1996C10.3604 4.47385 10.6242 4.66546 10.9297 4.71832L13.7409 5.20472C14.5331 5.34181 14.8479 6.31044 14.2875 6.88704L12.2991 8.9329C12.083 9.15526 11.9822 9.46529 12.0264 9.77221L12.4325 12.5961C12.5469 13.392 11.723 13.9906 11.0014 13.6358L8.44125 12.377C8.16299 12.2401 7.83701 12.2401 7.55875 12.377L4.99858 13.6358C4.27703 13.9906 3.45306 13.392 3.56751 12.5961L3.97361 9.77221C4.01775 9.46529 3.91702 9.15526 3.70091 8.9329L1.71253 6.88704C1.15213 6.31044 1.46686 5.34181 2.25915 5.20472L5.07031 4.71832C5.37584 4.66546 5.63957 4.47385 5.78426 4.1996L7.11555 1.67634Z" fill="#C9372C"/>
    <path d="M23.1156 1.67634C23.4908 0.965191 24.5092 0.965193 24.8844 1.67634L26.2157 4.1996C26.3604 4.47385 26.6242 4.66546 26.9297 4.71832L29.7409 5.20472C30.5331 5.34181 30.8479 6.31044 30.2875 6.88704L28.2991 8.9329C28.083 9.15526 27.9822 9.46529 28.0264 9.77221L28.4325 12.5961C28.5469 13.392 27.723 13.9906 27.0014 13.6358L24.4412 12.377C24.163 12.2401 23.837 12.2401 23.5588 12.377L20.9986 13.6358C20.277 13.9906 19.4531 13.392 19.5675 12.5961L19.9736 9.77221C20.0178 9.46529 19.917 9.15526 19.7009 8.9329L17.7125 6.88704C17.1521 6.31044 17.4669 5.34181 18.2592 5.20472L21.0703 4.71832C21.3758 4.66546 21.6396 4.47385 21.7843 4.1996L23.1156 1.67634Z" fill="#C9372C"/>
    <path d="M39.1156 1.67634C39.4908 0.965191 40.5092 0.965193 40.8844 1.67634L42.2157 4.1996C42.3604 4.47385 42.6242 4.66546 42.9297 4.71832L45.7409 5.20472C46.5331 5.34181 46.8479 6.31044 46.2875 6.88704L44.2991 8.9329C44.083 9.15526 43.9822 9.46529 44.0264 9.77221L44.4325 12.5961C44.5469 13.392 43.723 13.9906 43.0014 13.6358L40.4412 12.377C40.163 12.2401 39.837 12.2401 39.5588 12.377L36.9986 13.6358C36.277 13.9906 35.4531 13.392 35.5675 12.5961L35.9736 9.77221C36.0178 9.46529 35.917 9.15526 35.7009 8.9329L33.7125 6.88704C33.1521 6.31044 33.4669 5.34181 34.2592 5.20472L37.0703 4.71832C37.3758 4.66546 37.6396 4.47385 37.7843 4.1996L39.1156 1.67634Z" fill="#C9372C"/>
    <path d="M55.1156 1.67634C55.4908 0.965191 56.5092 0.965193 56.8844 1.67634L58.2157 4.1996C58.3604 4.47385 58.6242 4.66546 58.9297 4.71832L61.7409 5.20472C62.5331 5.34181 62.8479 6.31044 62.2875 6.88704L60.2991 8.9329C60.083 9.15526 59.9822 9.46529 60.0264 9.77221L60.4325 12.5961C60.5469 13.392 59.723 13.9906 59.0014 13.6358L56.4412 12.377C56.163 12.2401 55.837 12.2401 55.5588 12.377L52.9986 13.6358C52.277 13.9906 51.4531 13.392 51.5675 12.5961L51.9736 9.77221C52.0178 9.46529 51.917 9.15526 51.7009 8.9329L49.7125 6.88704C49.1521 6.31044 49.4669 5.34181 50.2592 5.20472L53.0703 4.71832C53.3758 4.66546 53.6396 4.47385 53.7843 4.1996L55.1156 1.67634Z" fill="#C9372C"/>
    <path d="M71.1156 1.67634C71.4908 0.965191 72.5092 0.965193 72.8844 1.67634L74.2157 4.1996C74.3604 4.47385 74.6242 4.66546 74.9297 4.71832L77.7409 5.20472C78.5331 5.34181 78.8479 6.31044 78.2875 6.88704L76.2991 8.9329C76.083 9.15526 75.9822 9.46529 76.0264 9.77221L76.4325 12.5961C76.5469 13.392 75.723 13.9906 75.0014 13.6358L72.4412 12.377C72.163 12.2401 71.837 12.2401 71.5588 12.377L68.9986 13.6358C68.277 13.9906 67.4531 13.392 67.5675 12.5961L67.9736 9.77221C68.0178 9.46529 67.917 9.15526 67.7009 8.9329L65.7125 6.88704C65.1521 6.31044 65.4669 5.34181 66.2592 5.20472L69.0703 4.71832C69.3758 4.66546 69.6396 4.47385 69.7843 4.1996L71.1156 1.67634Z" fill="#C9372C"/>
</svg>