<svg xmlns="http://www.w3.org/2000/svg" viewBox="0 0 20 20"><title>reservations</title><path d="M16.09,4.14H12.23V3.56A.59.59,0,0,0,11.64,3a.58.58,0,0,0-.59.59v.58H7.6V3.56A.58.58,0,0,0,7,3a.59.59,0,0,0-.59.59v.58H3.13V3.56A.59.59,0,0,0,2.54,3,.58.58,0,0,0,2,3.56v.58h-4a.59.59,0,0,0-.59.59V18.05a.58.58,0,0,0,.59.59H1.56a5.6,5.6,0,0,0,10.91,0h3.62a.58.58,0,0,0,.59-.59V4.73a.59.59,0,0,0-.59-.59ZM2,5.32v.53a.58.58,0,0,0,.59.59.59.59,0,0,0,.59-.59V5.32H6.42v.53A.59.59,0,0,0,7,6.44a.58.58,0,0,0,.59-.59V5.32h3.45v.53a.58.58,0,0,0,.59.59.59.59,0,0,0,.59-.59V5.32H15.5V7.73h-17V5.32ZM7,21.79a4.43,4.43,0,1,1,4.43-4.43A4.42,4.42,0,0,1,7,21.79Zm5.61-4.33v-.1a5.61,5.61,0,0,0-11.21,0v.1H-1.47V8.91h17v8.55Z" transform="translate(2.99 -2.97)" style="fill:#1db51d"/><path d="M7.6,17.51V14.66A.59.59,0,0,0,7,14.07a.6.6,0,0,0-.59.59v3.1a.59.59,0,0,0,.18.41L8,19.53a.6.6,0,0,0,.84,0,.59.59,0,0,0,0-.83L7.6,17.51Z" transform="translate(2.99 -2.97)" style="fill:#1db51d"/><rect width="20" height="20" style="fill:none"/></svg>