<svg xmlns="http://www.w3.org/2000/svg" viewBox="0 0 20 20"><title>takeaway</title><path d="M37.12-1.58l-3-2.67a.33.33,0,0,0-.44,0l-3,2.67a.32.32,0,0,0-.09.37A.34.34,0,0,0,30.9-1h6a.34.34,0,0,0,.31-.21A.34.34,0,0,0,37.12-1.58Zm-5.35-.09L33.9-3.55,36-1.67Z" transform="translate(-18.57 21)" style="fill:#b71c1c"/><path d="M34.21-18.78A.32.32,0,0,0,33.9-19H23.23a.4.4,0,0,0-.21.07c-1,.83-1.76,2.53-2.28,5.2a43.57,43.57,0,0,0-.84,8.62v3.78a.33.33,0,0,0,.33.33H30.9a.33.33,0,0,0,.33-.33V-5.11a42.94,42.94,0,0,1,.83-8.49c.48-2.48,1.17-4.1,2-4.81A.33.33,0,0,0,34.21-18.78ZM31.4-13.73a43.57,43.57,0,0,0-.84,8.62v3.44h-10V-5.11a42.94,42.94,0,0,1,.83-8.49c.47-2.4,1.13-4,2-4.73h9.77A11,11,0,0,0,31.4-13.73Z" transform="translate(-18.57 21)" style="fill:#b71c1c"/><path d="M36.39-13.73c-.52-2.67-1.26-4.37-2.28-5.2a.33.33,0,0,0-.42,0c-1,.83-1.77,2.53-2.29,5.2a43.57,43.57,0,0,0-.84,8.62v3.78A.34.34,0,0,0,30.9-1h6a.33.33,0,0,0,.33-.33V-5.11A43.57,43.57,0,0,0,36.39-13.73Zm.17,12.06H31.23V-5.11a42.94,42.94,0,0,1,.83-8.49c.44-2.28,1.06-3.83,1.84-4.62.78.79,1.4,2.34,1.84,4.62a42.92,42.92,0,0,1,.82,8.49Z" transform="translate(-18.57 21)" style="fill:#b71c1c"/><path d="M34.23-21H33.9a.34.34,0,0,0-.34.33v2a.34.34,0,0,0,.34.34h1.33a.33.33,0,0,0,.33-.34v-1A1.33,1.33,0,0,0,34.23-21Zm.67,2h-.67v-1.33a.67.67,0,0,1,.67.66Z" transform="translate(-18.57 21)" style="fill:#b71c1c"/><path d="M33.9-21H24.23a1.34,1.34,0,0,0-1.33,1.33v1a.34.34,0,0,0,.33.34H33.9a.34.34,0,0,0,.33-.34v-2A.33.33,0,0,0,33.9-21Zm-.34,2h-10v-.67a.67.67,0,0,1,.67-.66h9.33Z" transform="translate(-18.57 21)" style="fill:#b71c1c"/><path d="M33.9-19a.34.34,0,0,0-.34.33V-4a.34.34,0,0,0,.34.33A.33.33,0,0,0,34.23-4V-18.67A.33.33,0,0,0,33.9-19Z" transform="translate(-18.57 21)" style="fill:#b71c1c"/><path d="M27.13-9.9a.33.33,0,0,0-.47,0,.33.33,0,0,0,0,.47,1.77,1.77,0,0,1,.15,1.86c-.22.54-.59.9-.91.9a.34.34,0,0,0-.34.34A.34.34,0,0,0,25.9-6a1.83,1.83,0,0,0,1.52-1.31A2.37,2.37,0,0,0,27.13-9.9Z" transform="translate(-18.57 21)" style="fill:#b71c1c"/><path d="M28.82-9.57A2.7,2.7,0,0,0,27.9-11l-.16-.12a3.08,3.08,0,0,0-2.53-.45A2.93,2.93,0,0,0,23-8.09a2.7,2.7,0,0,0,1.26,1.67A3.12,3.12,0,0,0,25.8-6a3,3,0,0,0,.79-.1A2.93,2.93,0,0,0,28.82-9.57Zm-2.4,2.82A2.4,2.4,0,0,1,24.58-7a2,2,0,0,1-.95-1.26,2.26,2.26,0,0,1,1.74-2.66A2.72,2.72,0,0,1,26-11a2.36,2.36,0,0,1,1.35.41l.14.11a2,2,0,0,1,.68,1.07A2.25,2.25,0,0,1,26.42-6.75Z" transform="translate(-18.57 21)" style="fill:#b71c1c"/><path d="M27.9-13.67a2.34,2.34,0,0,0-2.34,2.34.34.34,0,0,0,.34.33,2.34,2.34,0,0,0,2.33-2.33A.34.34,0,0,0,27.9-13.67Zm-1.63,2A1.69,1.69,0,0,1,27.52-13,1.66,1.66,0,0,1,26.27-11.71Z" transform="translate(-18.57 21)" style="fill:#b71c1c"/><rect width="20" height="20" style="fill:none"/></svg>