<svg xmlns="http://www.w3.org/2000/svg" viewBox="0 0 20 20"><title>vegetarian_200-01</title><path d="M9.84,3.75a4.7,4.7,0,0,0-4.28-.13A6.16,6.16,0,0,1,4.44,4c0-.24,0-.47,0-.71a4.71,4.71,0,0,0,3-1.16A5,5,0,0,0,8.55-1.26a.39.39,0,0,0-.37-.37A5,5,0,0,0,4.85-.46,3.54,3.54,0,0,0,4.1.67a7.13,7.13,0,0,0-.95-2.15.38.38,0,0,0-.53-.11.38.38,0,0,0-.11.53,6.67,6.67,0,0,1,1,2.37,15.47,15.47,0,0,1,.22,2.63,6.16,6.16,0,0,1-1.12-.33,4.74,4.74,0,0,0-4.28.13c-2.84,1.44-3.13,6.41-1.63,10.15s2.85,4.46,4.44,4.46a7,7,0,0,0,1.79-.23A4.81,4.81,0,0,1,4.07,18a4.81,4.81,0,0,1,1.19.17,7,7,0,0,0,1.79.23c1.58,0,2.94-.76,4.44-4.46S12.68,5.19,9.84,3.75ZM5.38.09A3.94,3.94,0,0,1,7.76-.85a3.84,3.84,0,0,1-.93,2.38,3.45,3.45,0,0,1-1.75.85L6.15,1.31A.38.38,0,1,0,5.61.77L4.54,1.85A3.35,3.35,0,0,1,5.38.09Zm5.37,13.53c-1.48,3.67-2.65,4-3.72,4a6.35,6.35,0,0,1-1.61-.21,5.72,5.72,0,0,0-1.37-.19,5.72,5.72,0,0,0-1.37.19,6.42,6.42,0,0,1-1.61.21c-1.07,0-2.25-.31-3.72-4C-4,10.27-3.81,5.68-1.39,4.44a4,4,0,0,1,3.67-.09A5.09,5.09,0,0,0,4,4.75h0a5.2,5.2,0,0,0,1.77-.4,4,4,0,0,1,3.68.09C11.92,5.68,12.1,10.27,10.75,13.62Z" transform="translate(5.94 1.65)" style="fill:#b71c1c"/><path d="M9.7,6.6a.38.38,0,0,0-.21.5,5.8,5.8,0,0,1,.42,2.51.4.4,0,0,0,.36.41h0a.38.38,0,0,0,.38-.36,6.72,6.72,0,0,0-.47-2.84A.38.38,0,0,0,9.7,6.6Z" transform="translate(5.94 1.65)" style="fill:#b71c1c"/><path d="M8.93,5.24a1.94,1.94,0,0,0-1-.3h0a.38.38,0,0,0-.38.38.39.39,0,0,0,.38.4,1.12,1.12,0,0,1,.64.19.36.36,0,0,0,.2.06.39.39,0,0,0,.33-.18A.41.41,0,0,0,8.93,5.24Z" transform="translate(5.94 1.65)" style="fill:#b71c1c"/><rect width="20" height="20" style="fill:none"/></svg>