<svg xmlns="http://www.w3.org/2000/svg" viewBox="0 0 20 20"><title>wifi</title><circle cx="9.96" cy="16.93" r="1.29" style="fill:#b71c1c"/><path d="M-10,52.06a13.25,13.25,0,0,0-9.79-4.27,13.22,13.22,0,0,0-9.79,4.27.77.77,0,0,0,0,1.1.77.77,0,0,0,1.1,0,11.72,11.72,0,0,1,8.65-3.77,11.69,11.69,0,0,1,8.64,3.77.79.79,0,0,0,.58.25.77.77,0,0,0,.53-.21A.79.79,0,0,0-10,52.06Z" transform="translate(29.81 -46.01)" style="fill:#b71c1c"/><path d="M-12.89,55.28a9.74,9.74,0,0,0-6.92-3,9.71,9.71,0,0,0-6.92,3,.78.78,0,0,0,0,1.11.78.78,0,0,0,1.1,0,8.22,8.22,0,0,1,5.82-2.5A8.2,8.2,0,0,1-14,56.38a.75.75,0,0,0,.55.24.82.82,0,0,0,.56-.23A.8.8,0,0,0-12.89,55.28Z" transform="translate(29.81 -46.01)" style="fill:#b71c1c"/><path d="M-16,58.52a5.6,5.6,0,0,0-3.8-1.63h-.06a5.62,5.62,0,0,0-3.8,1.63.77.77,0,0,0,0,1.1.75.75,0,0,0,.55.24.78.78,0,0,0,.55-.23,4,4,0,0,1,2.7-1.18h.06a4,4,0,0,1,2.7,1.18.79.79,0,0,0,1.11,0A.78.78,0,0,0-16,58.52Z" transform="translate(29.81 -46.01)" style="fill:#b71c1c"/><rect width="20" height="20" style="fill:none"/></svg>