<svg xmlns="http://www.w3.org/2000/svg" viewBox="0 0 14 14"><title>Vector Smart Object71</title><path d="M-47.46,108.14a6.51,6.51,0,0,0-6.5,6.5,6.51,6.51,0,0,0,6.5,6.5,6.51,6.51,0,0,0,6.5-6.5A6.51,6.51,0,0,0-47.46,108.14Zm0,11.58a5.09,5.09,0,0,1-5.07-5.08,5.09,5.09,0,0,1,5.07-5.08,5.09,5.09,0,0,1,5.07,5.08A5.09,5.09,0,0,1-47.46,119.72Z" transform="translate(54.46 -107.64)" style="fill:#b71c1c"/><path d="M-43.48,115.68a.33.33,0,0,0-.23-.21l-2.61-.79a.93.93,0,0,0-.47-.69v-2a.46.46,0,0,0-.46-.46.46.46,0,0,0-.46.46v2a.93.93,0,0,0-.48.81.94.94,0,0,0,.94.93.92.92,0,0,0,.63-.25l2.65.81h.1a.36.36,0,0,0,.34-.2A.48.48,0,0,0-43.48,115.68Z" transform="translate(54.46 -107.64)" style="fill:#b71c1c"/><rect width="14" height="14" style="fill:none"/></svg>